<svg xmlns="http://www.w3.org/2000/svg" width="115.002" height="43.99" viewBox="0 0 115.002 43.99">
  <path id="Logo" d="M249.589,79.753a2.932,2.932,0,0,1-1.013-.725l.5-.531a2.153,2.153,0,0,0,.765.638,2.279,2.279,0,0,0,1.049.24,2.245,2.245,0,0,0,.861-.148,1.492,1.492,0,0,0,.573-.4,1.538,1.538,0,0,0,.314-.6,2.7,2.7,0,0,0,.1-.73v-.859h-.02a1.829,1.829,0,0,1-.791.694,2.418,2.418,0,0,1-.984.205,2.56,2.56,0,0,1-.967-.184,2.453,2.453,0,0,1-.786-.507,2.3,2.3,0,0,1-.526-.77,2.43,2.43,0,0,1-.193-.969,2.553,2.553,0,0,1,.183-.97,2.487,2.487,0,0,1,.5-.786,2.279,2.279,0,0,1,.76-.526,2.452,2.452,0,0,1,.968-.188,2.6,2.6,0,0,1,.451.041,2.092,2.092,0,0,1,.477.143,2.207,2.207,0,0,1,.907.735h.02v-.8h.669V77.5a3.936,3.936,0,0,1-.1.826,2.061,2.061,0,0,1-.375.806,2.129,2.129,0,0,1-.776.613,2.94,2.94,0,0,1-1.3.245A3.239,3.239,0,0,1,249.589,79.753Zm.674-6.356a1.877,1.877,0,0,0-.931,2.4,1.878,1.878,0,0,0,.374.582,1.834,1.834,0,0,0,.557.4,1.615,1.615,0,0,0,.695.148,1.836,1.836,0,0,0,1.277-.5,1.61,1.61,0,0,0,.391-.577,1.879,1.879,0,0,0,.127-.755,2.022,2.022,0,0,0-.122-.709,1.683,1.683,0,0,0-.923-.981,1.839,1.839,0,0,0-.75-.148A1.642,1.642,0,0,0,250.263,73.4ZM266.2,77.471a2.39,2.39,0,0,1-1.009-.822l.669-.48a1.747,1.747,0,0,0,.647.638,1.929,1.929,0,0,0,.98.239,1.77,1.77,0,0,0,.545-.086,1.592,1.592,0,0,0,.491-.256,1.405,1.405,0,0,0,.358-.413,1.1,1.1,0,0,0,.141-.562,1.163,1.163,0,0,0-.157-.628,1.346,1.346,0,0,0-.416-.419,2.613,2.613,0,0,0-.588-.281q-.329-.112-.68-.225c-.233-.075-.459-.159-.68-.255a2.342,2.342,0,0,1-.588-.363,1.63,1.63,0,0,1-.416-.552,1.944,1.944,0,0,1-.158-.832,1.981,1.981,0,0,1,.2-.909,1.889,1.889,0,0,1,.527-.643,2.225,2.225,0,0,1,.745-.378,2.987,2.987,0,0,1,.851-.122,3.031,3.031,0,0,1,1.105.193,2.39,2.39,0,0,1,.922.685l-.639.5a1.569,1.569,0,0,0-1.389-.7,2.01,2.01,0,0,0-.557.076,1.541,1.541,0,0,0-.491.234,1.168,1.168,0,0,0-.35.409,1.239,1.239,0,0,0-.132.588,1.017,1.017,0,0,0,.275.76,2.116,2.116,0,0,0,.679.445,7.647,7.647,0,0,0,.887.312,4.006,4.006,0,0,1,.887.367,2.122,2.122,0,0,1,.68.608,1.727,1.727,0,0,1,.273,1.03,1.863,1.863,0,0,1-.207.883,2.052,2.052,0,0,1-.547.66,2.59,2.59,0,0,1-.76.408,2.619,2.619,0,0,1-.847.143A3.188,3.188,0,0,1,266.2,77.471Zm25.989,0a2.373,2.373,0,0,1-.8-.526,2.421,2.421,0,0,1-.523-.8,2.769,2.769,0,0,1,0-2,2.417,2.417,0,0,1,.523-.8,2.376,2.376,0,0,1,.8-.526,2.648,2.648,0,0,1,1.008-.188,2.677,2.677,0,0,1,1.019.188,2.4,2.4,0,0,1,.8.526,2.43,2.43,0,0,1,.522.8,2.769,2.769,0,0,1,0,2,2.433,2.433,0,0,1-.522.8,2.4,2.4,0,0,1-.8.526,2.661,2.661,0,0,1-1.019.189A2.631,2.631,0,0,1,292.188,77.471Zm.263-4.074a1.661,1.661,0,0,0-.557.4,1.838,1.838,0,0,0-.355.6,2.267,2.267,0,0,0,0,1.49,1.815,1.815,0,0,0,.355.6,1.627,1.627,0,0,0,.557.4,1.955,1.955,0,0,0,1.49,0,1.658,1.658,0,0,0,.563-.4,1.783,1.783,0,0,0,.36-.6,2.252,2.252,0,0,0,0-1.49,1.8,1.8,0,0,0-.36-.6,1.693,1.693,0,0,0-.562-.4,1.955,1.955,0,0,0-1.49,0Zm-6.132,4.212a.932.932,0,0,1-.38-.194,1.063,1.063,0,0,1-.284-.387,1.564,1.564,0,0,1-.112-.644V73.372h-1V72.76h1V71.411h.67V72.76h1.368v.612h-1.368v2.818a1.559,1.559,0,0,0,.05.434.61.61,0,0,0,.142.261.485.485,0,0,0,.218.127,1,1,0,0,0,.279.036,1.309,1.309,0,0,0,.355-.051,1.6,1.6,0,0,0,.334-.132l.031.622a2.113,2.113,0,0,1-.9.175A1.668,1.668,0,0,1,286.319,77.609Zm-6.392-.434a2,2,0,0,1-.436-1.383V72.76h.67V75.4a3.648,3.648,0,0,0,.06.7,1.334,1.334,0,0,0,.208.515.913.913,0,0,0,.4.317,1.587,1.587,0,0,0,.624.107,2.629,2.629,0,0,0,.284-.041,1.239,1.239,0,0,0,.491-.226,1.6,1.6,0,0,0,.461-.551,2.135,2.135,0,0,0,.2-1.021V72.76h.669v3.726c0,.13.006.292.016.491s.021.384.035.562h-.689c-.013-.13-.022-.257-.025-.383s-.005-.254-.005-.382h-.02a1.544,1.544,0,0,1-.284.356,1.808,1.808,0,0,1-.385.281,2.082,2.082,0,0,1-.451.184,1.758,1.758,0,0,1-.471.067A1.726,1.726,0,0,1,279.927,77.175Zm-7.617.3a2.358,2.358,0,0,1-1.318-1.322,2.769,2.769,0,0,1,0-2,2.366,2.366,0,0,1,1.318-1.322,2.648,2.648,0,0,1,1.008-.188,2.685,2.685,0,0,1,1.02.188,2.36,2.36,0,0,1,1.317,1.322,2.756,2.756,0,0,1,0,2,2.353,2.353,0,0,1-1.317,1.322,2.668,2.668,0,0,1-1.02.189A2.631,2.631,0,0,1,272.31,77.471Zm.264-4.074a1.656,1.656,0,0,0-.558.4,1.87,1.87,0,0,0-.355.6,2.252,2.252,0,0,0,0,1.49,1.846,1.846,0,0,0,.355.6,1.622,1.622,0,0,0,.558.4,1.953,1.953,0,0,0,1.49,0,1.666,1.666,0,0,0,.563-.4,1.783,1.783,0,0,0,.36-.6,2.251,2.251,0,0,0,0-1.49,1.8,1.8,0,0,0-.36-.6,1.7,1.7,0,0,0-.562-.4,1.953,1.953,0,0,0-1.49,0Zm-16.893,4.176a1.537,1.537,0,0,1-.522-.265,1.372,1.372,0,0,1-.365-.44,1.278,1.278,0,0,1-.137-.607,1.314,1.314,0,0,1,.3-.914,1.819,1.819,0,0,1,.75-.495,3.723,3.723,0,0,1,.962-.2c.342-.027.654-.041.939-.041h.334v-.122a1.084,1.084,0,0,0-1.216-1.236,2.087,2.087,0,0,0-1.45.562l-.406-.48a2.665,2.665,0,0,1,2.007-.694,2.153,2.153,0,0,1,.664.1,1.49,1.49,0,0,1,.553.311,1.528,1.528,0,0,1,.374.526,1.825,1.825,0,0,1,.142.756v2.134q0,.275.026.576c.016.2.035.366.056.5h-.65c-.02-.116-.035-.241-.045-.378s-.014-.269-.014-.4h-.021a1.819,1.819,0,0,1-.695.69,2.091,2.091,0,0,1-.978.209A2.148,2.148,0,0,1,255.681,77.573Zm1.283-2.389a3.689,3.689,0,0,0-.731.122,1.607,1.607,0,0,0-.6.3.687.687,0,0,0-.248.562.769.769,0,0,0,.355.678,1.082,1.082,0,0,0,.36.154,1.762,1.762,0,0,0,.4.046,1.5,1.5,0,0,0,.634-.123,1.3,1.3,0,0,0,.452-.33,1.334,1.334,0,0,0,.268-.491,2.026,2.026,0,0,0,.086-.6v-.346H257.6C257.429,75.158,257.217,75.168,256.964,75.184ZM244.3,77.471a2.3,2.3,0,0,1-.775-.526,2.5,2.5,0,0,1-.513-.8,2.643,2.643,0,0,1-.187-1,2.691,2.691,0,0,1,.183-1,2.408,2.408,0,0,1,.508-.8,2.32,2.32,0,0,1,1.7-.715,2.306,2.306,0,0,1,.963.194,2.16,2.16,0,0,1,.715.516,2.228,2.228,0,0,1,.44.755,2.77,2.77,0,0,1,.153.924v.307h-3.955a2.1,2.1,0,0,0,.173.673,1.752,1.752,0,0,0,.913.908,1.617,1.617,0,0,0,.659.133,1.672,1.672,0,0,0,.927-.25,1.869,1.869,0,0,0,.593-.577l.518.429a2.459,2.459,0,0,1-2.038,1.011A2.507,2.507,0,0,1,244.3,77.471Zm.289-4.1a1.766,1.766,0,0,0-.532.343,1.68,1.68,0,0,0-.365.49,1.266,1.266,0,0,0-.137.572h3.2a1.538,1.538,0,0,0-.4-1.108,1.5,1.5,0,0,0-1.136-.424A1.616,1.616,0,0,0,244.592,73.376ZM277.21,77.54V69.82h.671v7.72Zm-16.9,0V69.82h.671v7.72Zm40.021,0V74.894a2.243,2.243,0,0,0-.274-1.22,1.112,1.112,0,0,0-1.013-.424,2.831,2.831,0,0,0-.284.041,1.243,1.243,0,0,0-.491.225,1.6,1.6,0,0,0-.461.552,2.121,2.121,0,0,0-.2,1.021v2.451h-.669V73.811c0-.129-.005-.292-.016-.49s-.021-.384-.035-.561h.689c.013.129.022.256.026.382s0,.254,0,.383h.02a1.591,1.591,0,0,1,.284-.358,1.835,1.835,0,0,1,.385-.28,1.992,1.992,0,0,1,.451-.184,2,2,0,0,1,1.82.418A2,2,0,0,1,301,74.5v3.033Zm-11.686,0V72.76h.669v4.778Zm-50.4,0V70.309h.73v6.555h3.345v.674ZM186,74.73V73.38h42.98v1.35Zm102.645-3.456a.481.481,0,0,1,0-.7.473.473,0,0,1,.669,0,.485.485,0,0,1,0,.7.475.475,0,0,1-.669,0Zm-7.794-13.318a12.91,12.91,0,0,1,0-18.145,12.2,12.2,0,0,1,9.007-3.766,13.7,13.7,0,0,1,9.365,4.065l-2.415,2.213a10.353,10.353,0,0,0-6.95-2.982,9.1,9.1,0,0,0-6.693,2.794,9.6,9.6,0,0,0,0,13.514,9.105,9.105,0,0,0,6.693,2.794,10.353,10.353,0,0,0,6.95-2.982l2.415,2.182a13.7,13.7,0,0,1-9.365,4.064A12.227,12.227,0,0,1,280.851,57.956Zm-63.893-.016a12.912,12.912,0,0,1,0-18.175,12.69,12.69,0,0,1,18.045,0,12.91,12.91,0,0,1,0,18.175,12.69,12.69,0,0,1-18.045,0Zm2.3-15.861a9.637,9.637,0,0,0,.008,13.553,9.44,9.44,0,0,0,13.44,0,9.645,9.645,0,0,0,0-13.553,9.469,9.469,0,0,0-13.448,0ZM267.69,61.44V36.33h3.23V61.44Zm-63.91,0V36.33h3.23V61.44Zm54.51,0L247.865,43.3V61.439H244.64V36.327h2.945L257.869,54.25V36.327h3.242V61.439Zm-72.292,0V36.327h3.226V58.175h8.913v3.264Z" transform="translate(-185.999 -35.997)" fill="#3172b9"/>
</svg>
